<svg width="137" height="151" viewBox="0 0 137 151" fill="none" xmlns="http://www.w3.org/2000/svg">
<path d="M56.4907 50.6482C55.3637 55.7444 57.3237 60.9876 61.4889 64.0747L106.276 96.9549C102.405 106.118 95.6431 113.517 87.4108 118.369C77.8555 123.955 66.242 126.111 54.5796 123.514C54.0406 123.416 53.5016 123.269 53.0116 123.122C43.5543 120.672 35.42 115.379 29.4908 108.127C27.6777 105.922 25.1296 104.403 22.2875 103.766C10.0861 101.022 1.21678 115.33 9.20406 124.935C19.1514 136.94 32.9209 145.614 48.8464 149.142C75.7484 155.169 102.601 145.124 119.311 125.425C126.563 116.85 131.904 106.461 134.55 94.7988L136.413 86.4685L77.1694 42.955C69.5252 37.2708 58.5488 41.3379 56.4907 50.6482Z" fill="url(#paint0_linear_1001_380)"/>
<path d="M75.1602 88.4288L30.2747 54.8626C34.1458 45.6993 40.908 38.3 49.1403 33.4488C58.6957 27.8626 70.3091 25.7066 81.9715 28.3037C92.0658 30.5577 100.739 35.9969 107.011 43.5922C108.922 45.8953 111.569 47.4143 114.46 48.0513C126.612 50.7464 135.383 36.5849 127.494 26.9806C117.547 14.8772 103.728 6.20388 87.7047 2.62675C60.8517 -3.40046 33.9988 6.59589 17.2892 26.2946C10.037 34.8699 4.64678 45.2582 2.04969 56.9697L0.187622 65.2999L59.4307 109.548C67.075 115.233 78.0513 111.166 80.1584 101.855C81.2855 96.808 79.3254 91.5159 75.1602 88.4288Z" fill="url(#paint1_linear_1001_380)"/>
<defs>
<linearGradient id="paint0_linear_1001_380" x1="6.15375" y1="95.8884" x2="136.413" y2="95.8884" gradientUnits="userSpaceOnUse">
<stop stop-color="#061F89"/>
<stop offset="1" stop-color="#1234D0"/>
</linearGradient>
<linearGradient id="paint1_linear_1001_380" x1="0.187622" y1="56.7969" x2="130.503" y2="56.7969" gradientUnits="userSpaceOnUse">
<stop stop-color="#061F89"/>
<stop offset="1" stop-color="#1234D0"/>
</linearGradient>
</defs>
</svg>
